<?xml version="1.0" encoding="UTF-8"?>
<svg class="animated" version="1.1" viewBox="0 0 500 500" xmlns="http://www.w3.org/2000/svg">
<style>svg#freepik_stories-file-searching:not(.animated) .animable {opacity: 0;}svg#freepik_stories-file-searching.animated #freepik--Window--inject-23 {animation: 1s 1 forwards cubic-bezier(.36,-0.01,.5,1.38) fadeIn;animation-delay: 0s;}svg#freepik_stories-file-searching.animated #freepik--magnifying-glass--inject-23 {animation: 1s 1 forwards cubic-bezier(.36,-0.01,.5,1.38) fadeIn,6s Infinite  linear floating;animation-delay: 0s,1s;}            @keyframes fadeIn {                0% {                    opacity: 0;                }                100% {                    opacity: 1;                }            }                    @keyframes floating {                0% {                    opacity: 1;                    transform: translateY(0px);                }                50% {                    transform: translateY(-10px);                }                100% {                    opacity: 1;                    transform: translateY(0px);                }            }</style>
<g class="animable" style="transform-origin:257.17px 310.54px">
<ellipse class="animable" cx="257.17" cy="310.54" rx="223.22" ry="119.25" fill="#f5f5f5" style="transform-origin:257.17px 310.54px"/>
</g>
<g class="animable" fill="#e0e0e0" style="transform-origin:140.179px 321.445px">
<polygon id="a" class="animable" points="167.34 376.92 96.17 335.54 216.55 265.97" style="transform-origin:156.36px 321.445px"/>
<path class="animable" d="m64.61 333 29 16.72a4.3 4.3 0 0 0 3.89 0l40-23.34a1.18 1.18 0 0 0 0-2.24l-29-16.73a4.3 4.3 0 0 0-3.89 0l-40 23.34a1.19 1.19 0 0 0 0 2.25z" style="transform-origin:101.058px 328.565px"/>
</g>
<g class="animable" style="transform-origin:53.5776px 310.104px">
<g class="animable" style="transform-origin:53.5776px 310.104px">
<path class="animable" d="M67.75,330.4c-2-3.22-8.17-6.76-16.27-8.51S35.24,318,37.1,313.27c2-5.07,9.54-5.32,16.91-2.3,8.05,3.3,14,11.46,14.11,16.6Z" fill="#1b8ef2" style="transform-origin:52.4759px 319.705px"/>
<g class="animable" opacity=".1" style="transform-origin:52.4759px 319.705px">
<path class="animable" d="M67.75,330.4c-2-3.22-8.17-6.76-16.27-8.51S35.24,318,37.1,313.27c2-5.07,9.54-5.32,16.91-2.3,8.05,3.3,14,11.46,14.11,16.6Z" style="transform-origin:52.4759px 319.705px"/>
</g>
<path class="animable" d="M68.38,328.94a.6.6,0,0,1-.54-.35c-6.43-13.3-21.34-15.45-26-14.72a.61.61,0,0,1-.69-.51.6.6,0,0,1,.5-.69c4.94-.76,20.59,1.47,27.32,15.4a.61.61,0,0,1-.28.81A.66.66,0,0,1,68.38,328.94Z" fill="#fff" style="transform-origin:55.0859px 320.74px"/>
<path class="animable" d="M67.75,330.4s-3.87-15.33-13.68-23.57c-2.91-2.45-6-5.52-8.19-7.63-4.66-4.54-2.71-9.49,3.74-9.39,9.6.13,16.62,8.21,19.66,18.78S67.75,330.4,67.75,330.4Z" fill="#1b8ef2" style="transform-origin:56.8191px 310.104px"/>
<path class="animable" d="M69.28,324.45a.61.61,0,0,1-.61-.55c-1.8-19.5-16.68-29.3-20.73-30.34a.6.6,0,0,1,.3-1.17c4.92,1.26,19.79,11.43,21.64,31.4a.61.61,0,0,1-.55.66Z" fill="#fff" style="transform-origin:58.6852px 308.411px"/>
</g>
</g>
<g class="animable" style="transform-origin:106.305px 268.25px">
<g id="c" class="animable" style="transform-origin:100.445px 298.8px">
<polygon class="animable" points="94.59 347.26 67.27 331.48 67.26 272.88 94.59 288.66" fill="#263238" style="transform-origin:80.925px 310.07px"/>
<polygon class="animable" points="94.59 288.66 133.63 266.12 133.63 324.72 94.59 347.26" fill="#37474f" style="transform-origin:114.11px 306.69px"/>
<polygon class="animable" points="133.63 266.12 94.59 288.66 67.26 272.88 106.31 250.34" fill="#455a64" style="transform-origin:100.445px 269.5px"/>
<path class="animable" d="M111.46,287.94l5.31-3.07c.69-.4,1.25-.22,1.25.41a2.48,2.48,0,0,1-1.25,1.84l-5.31,3.07c-.69.4-1.25.22-1.25-.41A2.48,2.48,0,0,1,111.46,287.94Z" fill="#263238" style="transform-origin:114.115px 287.53px"/>
<polygon class="animable" points="97.78 318.38 129.01 300.35 129.73 300.76 129.01 322.05 129.73 322.47 98.5 340.5 97.78 340.08" fill="#263238" style="transform-origin:113.755px 320.425px"/>
<polygon class="animable" points="98.5 318.79 129.73 300.76 129.73 322.47 98.5 340.5" fill="#455a64" style="transform-origin:114.115px 320.63px"/>
<path class="animable" d="M110.74,315.4l5.31-3.06c.69-.4,1.25-.22,1.25.4a2.49,2.49,0,0,1-1.25,1.85l-5.31,3.07c-.69.4-1.25.21-1.25-.41A2.51,2.51,0,0,1,110.74,315.4Z" fill="#263238" style="transform-origin:113.395px 314.999px"/>
<polygon class="animable" points="97.78 291.38 129.01 273.35 129.73 273.76 129.01 295.05 129.73 295.47 98.5 313.5 97.78 313.08" fill="#263238" style="transform-origin:113.755px 293.425px"/>
<polygon class="animable" points="98.5 291.79 129.73 273.76 129.73 295.47 98.5 313.5" fill="#455a64" style="transform-origin:114.115px 293.63px"/>
<path class="animable" d="M110.74,288.4l5.31-3.06c.69-.4,1.25-.22,1.25.4a2.49,2.49,0,0,1-1.25,1.85l-5.31,3.07c-.69.4-1.25.21-1.25-.41A2.51,2.51,0,0,1,110.74,288.4Z" fill="#263238" style="transform-origin:113.395px 287.999px"/>
</g>
<g class="animable" style="transform-origin:106.305px 237.705px">
<polygon class="animable" points="94.59 286.17 67.27 270.39 67.26 211.78 94.59 227.56" fill="#263238" style="transform-origin:80.925px 248.975px"/>
<polygon class="animable" points="94.59 227.56 133.63 205.02 133.63 263.63 94.59 286.17" fill="#37474f" style="transform-origin:114.11px 245.595px"/>
<polygon class="animable" points="133.63 205.02 94.59 227.56 67.26 211.78 106.31 189.24" fill="#455a64" style="transform-origin:100.445px 208.4px"/>
<polygon class="animable" points="98.5 229.81 129.73 211.78 130.45 212.2 130.45 233.9 99.22 251.94 98.5 251.52" fill="#263238" style="transform-origin:114.475px 231.86px"/>
<path class="animable" d="M111.46,226.84l5.31-3.07c.69-.4,1.25-.21,1.25.41a2.51,2.51,0,0,1-1.25,1.85l-5.31,3.06c-.69.4-1.25.22-1.25-.4A2.49,2.49,0,0,1,111.46,226.84Z" fill="#263238" style="transform-origin:114.115px 226.431px"/>
<polygon class="animable" points="97.78 257.28 129.01 239.25 129.01 260.96 129.73 261.37 98.5 279.4 97.78 278.99" fill="#263238" style="transform-origin:113.755px 259.325px"/>
<polygon class="animable" points="98.5 257.7 129.73 239.66 129.73 261.37 98.5 279.4" fill="#455a64" style="transform-origin:114.115px 259.53px"/>
<path class="animable" d="M110.74,254.31l5.31-3.07c.69-.4,1.25-.22,1.25.41a2.48,2.48,0,0,1-1.25,1.84l-5.31,3.07c-.69.4-1.25.22-1.25-.41A2.48,2.48,0,0,1,110.74,254.31Z" fill="#263238" style="transform-origin:113.395px 253.9px"/>
<polygon class="animable" points="98.5 229.81 129.73 211.78 129.73 233.49 98.5 251.52" fill="#263238" style="transform-origin:114.115px 231.65px"/>
<polygon class="animable" points="145.35 222.5 128.25 212.64 128.25 231.76 145.35 241.63" fill="#263238" style="transform-origin:136.8px 227.135px"/>
<polygon class="animable" points="110.21 254.61 110.21 227.56 116.91 223.68 118.02 225.31 137.54 214.03 137.54 238.83" fill="#1b8ef2" style="transform-origin:123.875px 234.32px"/>
<g class="animable" opacity=".2" style="transform-origin:123.875px 234.32px">
<polygon class="animable" points="110.21 254.61 110.21 227.56 116.91 223.68 118.02 225.31 137.54 214.03 137.54 238.83" style="transform-origin:123.875px 234.32px"/>
</g>
<polygon class="animable" points="110.21 254.61 112.16 230.94 139.49 215.16 137.54 238.83" fill="#1b8ef2" style="transform-origin:124.85px 234.885px"/>
<polygon class="animable" points="114.11 240.54 99.21 231.94 99.21 251.06 114.11 259.66" fill="#37474f" style="transform-origin:106.66px 245.8px"/>
<polygon class="animable" points="114.11 238.83 145.35 220.8 145.35 242.5 114.11 260.54" fill="#455a64" style="transform-origin:129.73px 240.67px"/>
<path class="animable" d="M126.36,235.44l5.31-3.07c.69-.4,1.25-.21,1.25.41a2.51,2.51,0,0,1-1.25,1.85l-5.31,3.06c-.69.4-1.25.22-1.25-.4A2.51,2.51,0,0,1,126.36,235.44Z" fill="#263238" style="transform-origin:129.015px 235.031px"/>
<polygon class="animable" points="114.11 238.83 113.07 238.23 113.07 259.94 114.11 260.54" fill="#263238" style="transform-origin:113.59px 249.385px"/>
<polygon class="animable" points="113.07 238.23 144.31 220.2 145.35 220.8 114.11 238.83" fill="#37474f" style="transform-origin:129.21px 229.515px"/>
</g>
</g>
<g class="animable animator-active" style="transform-origin:269.377px 223.001px">
<g class="animable" style="transform-origin:269.377px 223.001px">
<path class="animable" d="m375 82.3-4.06-2.36-207.19 119.6v173.23a3.06 3.06 0 0 0 1.26 2.8l4.06 2.36a3.06 3.06 0 0 0 3.07-0.3l198.5-114.63a9.58 9.58 0 0 0 4.33-7.5z" fill="#e6e6e6" style="transform-origin:269.367px 229.075px"/>
<path class="animable" d="M167.81,375.13c0,2.76,1.93,3.88,4.33,2.5L370.64,263a9.58,9.58,0,0,0,4.33-7.5V82.3L167.81,201.91Z" fill="#fafafa" style="transform-origin:271.39px 230.26px"/>
<path class="animable" d="M374,84V255.52a8.61,8.61,0,0,1-3.83,6.64l-198.5,114.6a3,3,0,0,1-1.44.46c-1.26,0-1.39-1.46-1.39-2.09V202.48L374,84m1-1.73L167.81,201.91V375.13c0,2,1,3.09,2.39,3.09a4,4,0,0,0,1.94-.59L370.64,263a9.58,9.58,0,0,0,4.33-7.5V82.3Z" fill="#e0e0e0" style="transform-origin:271.405px 230.245px"/>
<polygon class="animable" points="167.81 201.91 167.81 220.66 374.97 101.05 374.97 82.3" fill="#1b8ef2" style="transform-origin:271.39px 151.48px"/>
<path class="animable" d="M297.79,134.21v4c0,.82.59,1.16,1.3.75l63.69-36.78v-7L299.09,132A2.9,2.9,0,0,0,297.79,134.21Z" fill="#fafafa" style="transform-origin:330.285px 117.157px"/>
<path class="animable" d="M369.61,91.25c.72-.42,1.3-.08,1.3.75v4a2.86,2.86,0,0,1-1.3,2.25l-6.83,3.94v-7Z" fill="#455a64" style="transform-origin:366.845px 96.6299px"/>
<path class="animable" d="M369.11,96.78l-.77-.24a4.06,4.06,0,0,0,.13-1,1.78,1.78,0,0,0-.7-1.62,1.09,1.09,0,0,0-1.11,0,3.89,3.89,0,0,0-1.52,3.17,1.76,1.76,0,0,0,.7,1.62.89.89,0,0,0,.48.13,1.25,1.25,0,0,0,.62-.18,3.16,3.16,0,0,0,1.23-1.65l.77.24H369a.28.28,0,0,0,.27-.19A.29.29,0,0,0,369.11,96.78Zm-2.45,1.46a.51.51,0,0,1-.54.05,1.29,1.29,0,0,1-.41-1.13,3.39,3.39,0,0,1,1.23-2.68.74.74,0,0,1,.35-.11.36.36,0,0,1,.2.06,1.32,1.32,0,0,1,.41,1.13A3.4,3.4,0,0,1,366.66,98.24Z" fill="#fafafa" style="transform-origin:367.199px 96.3041px"/>
<path class="animable" d="M369.68,68.09a3,3,0,0,0-3.1.28L168.08,183a9.55,9.55,0,0,0-4.33,7.5v9.07l4.06,2.37L375,82.3V73.23a3,3,0,0,0-1.25-2.79C373,70,370.39,68.52,369.68,68.09Z" fill="#263238" style="transform-origin:269.385px 134.862px"/>
<path class="animable" d="M167.81,192.84a9.53,9.53,0,0,1,4.33-7.5L370.64,70.73c2.39-1.38,4.33-.26,4.33,2.5V82.3L167.81,201.91Z" fill="#37474f" style="transform-origin:271.39px 136.025px"/>
<path class="animable" d="M373.76,70.46a3,3,0,0,0-3.12.27l-198.5,114.6a8.83,8.83,0,0,0-3.06,3.23L165,186.21a8.89,8.89,0,0,1,3.07-3.24L366.58,68.36a3,3,0,0,1,3.1-.27c.71.43,3.31,1.92,4,2.34Z" fill="#455a64" style="transform-origin:269.38px 128.17px"/>
<path class="animable" d="m350.6 87a4.49 4.49 0 0 0-2 3.52c0 1.29 0.91 1.82 2 1.17a4.49 4.49 0 0 0 2-3.52c0.03-1.31-0.88-1.84-2-1.17z" fill="#1b8ef2" style="transform-origin:350.6px 89.3388px"/>
<path class="animable" d="m357.71 82.89a4.47 4.47 0 0 0-2 3.51c0 1.3 0.91 1.82 2 1.18a4.51 4.51 0 0 0 2-3.52c0.03-1.3-0.88-1.82-2-1.17z" fill="#1b8ef2" style="transform-origin:357.71px 85.2318px"/>
<path class="animable" d="m364.81 78.79a4.49 4.49 0 0 0-2 3.52c0 1.3 0.91 1.82 2 1.17a4.46 4.46 0 0 0 2-3.52c0.04-1.29-0.87-1.82-2-1.17z" fill="#1b8ef2" style="transform-origin:364.811px 81.1359px"/>
<path class="animable" d="m172.14 377.63 36.29-20.95v-159.48l-40.62 23.46v154.47c0 2.76 1.93 3.87 4.33 2.5z" fill="#f5f5f5" style="transform-origin:188.12px 287.708px"/>
<path class="animable" d="M207.43,198.93V356.1l-35.79,20.66a3,3,0,0,1-1.44.46c-1.26,0-1.39-1.46-1.39-2.09V221.23l38.62-22.3m1-1.73-40.62,23.46V375.13c0,2,1,3.09,2.39,3.09a4,4,0,0,0,1.94-.59l36.29-20.95V197.2Z" fill="#e0e0e0" style="transform-origin:188.12px 287.71px"/>
<path class="animable" d="M181.29,222.25,200.73,211c.71-.42,1.29-.08,1.29.75v1.69a2.89,2.89,0,0,1-1.29,2.25l-19.44,11.23c-.72.42-1.3.08-1.3-.75V224.5A2.9,2.9,0,0,1,181.29,222.25Z" fill="#e0e0e0" style="transform-origin:191.005px 218.96px"/>
<path class="animable" d="m175.93 226.85v1.69a2.87 2.87 0 0 1-1.3 2.25l-1.46 0.84c-0.72 0.42-1.3 0.08-1.3-0.75v-1.69a2.87 2.87 0 0 1 1.3-2.25l1.46-0.84c0.72-0.42 1.3-0.1 1.3 0.75z" fill="#1b8ef2" style="transform-origin:173.9px 228.863px"/>
<path class="animable" d="M181.29,231.6l19.44-11.23c.71-.42,1.29-.08,1.29.74v1.69a2.91,2.91,0,0,1-1.29,2.26l-19.44,11.23c-.72.41-1.3.08-1.3-.75v-1.69A2.88,2.88,0,0,1,181.29,231.6Z" fill="#e0e0e0" style="transform-origin:191.005px 228.328px"/>
<path class="animable" d="m175.93 236.19v1.69a2.86 2.86 0 0 1-1.3 2.25l-1.46 0.85c-0.72 0.41-1.3 0.08-1.3-0.75v-1.69a2.86 2.86 0 0 1 1.3-2.25l1.46-0.85c0.72-0.44 1.3-0.08 1.3 0.75z" fill="#1b8ef2" style="transform-origin:173.9px 238.203px"/>
<path class="animable" d="M181.29,240.94l19.44-11.23c.71-.41,1.29-.08,1.29.75v1.69a2.87,2.87,0,0,1-1.29,2.25l-19.44,11.23c-.72.42-1.3.08-1.3-.74v-1.7A2.91,2.91,0,0,1,181.29,240.94Z" fill="#e0e0e0" style="transform-origin:191.005px 237.672px"/>
<path class="animable" d="m175.93 245.54v1.69a2.86 2.86 0 0 1-1.3 2.25l-1.46 0.85c-0.72 0.41-1.3 0.07-1.3-0.75v-1.7a2.89 2.89 0 0 1 1.3-2.25l1.46-0.84c0.72-0.41 1.3-0.08 1.3 0.75z" fill="#1b8ef2" style="transform-origin:173.9px 247.559px"/>
<path class="animable" d="M181.29,271.94l19.44-11.24c.71-.41,1.29-.08,1.29.75v1.69a2.87,2.87,0,0,1-1.29,2.25l-19.44,11.24c-.72.41-1.3.08-1.3-.75v-1.69A2.88,2.88,0,0,1,181.29,271.94Z" fill="#e0e0e0" style="transform-origin:191.005px 268.665px"/>
<path class="animable" d="m175.93 276.53v1.69a2.86 2.86 0 0 1-1.3 2.25l-1.46 0.85c-0.72 0.41-1.3 0.08-1.3-0.75v-1.69a2.86 2.86 0 0 1 1.3-2.25l1.46-0.85c0.72-0.41 1.3-0.08 1.3 0.75z" fill="#1b8ef2" style="transform-origin:173.9px 278.55px"/>
<path class="animable" d="M181.29,280.21,200.73,269c.71-.41,1.29-.08,1.29.75v1.69a2.87,2.87,0,0,1-1.29,2.25L181.29,284.9c-.72.42-1.3.08-1.3-.75v-1.69A2.91,2.91,0,0,1,181.29,280.21Z" fill="#e0e0e0" style="transform-origin:191.005px 276.952px"/>
<path class="animable" d="m175.93 284.81v1.69a2.86 2.86 0 0 1-1.3 2.25l-1.46 0.84c-0.72 0.42-1.3 0.08-1.3-0.75v-1.69a2.89 2.89 0 0 1 1.3-2.25l1.46-0.84c0.72-0.41 1.3-0.06 1.3 0.75z" fill="#1b8ef2" style="transform-origin:173.9px 286.829px"/>
<path class="animable" d="M181.29,288.49l19.44-11.23c.71-.42,1.29-.08,1.29.75v1.69a2.89,2.89,0,0,1-1.29,2.25l-19.44,11.23c-.72.42-1.3.08-1.3-.75v-1.69A2.9,2.9,0,0,1,181.29,288.49Z" fill="#e0e0e0" style="transform-origin:191.005px 285.22px"/>
<path class="animable" d="m175.93 293.09v1.69a2.87 2.87 0 0 1-1.3 2.25l-1.46 0.84c-0.72 0.42-1.3 0.08-1.3-0.75v-1.69a2.87 2.87 0 0 1 1.3-2.25l1.46-0.84c0.72-0.42 1.3-0.08 1.3 0.75z" fill="#1b8ef2" style="transform-origin:173.9px 295.105px"/>
<polygon class="animable" points="179.99 251.15 179.99 254.06 182.52 251.15" fill="#1b8ef2" style="transform-origin:181.255px 252.605px"/>
<path class="animable" d="M184.06,250.54c0,.55.38.76.86.48l16.24-9.34a1.91,1.91,0,0,0,.86-1.5c0-.55-.38-.77-.86-.49l-16.24,9.37A1.89,1.89,0,0,0,184.06,250.54Z" fill="#e0e0e0" style="transform-origin:193.04px 245.356px"/>
<polygon class="animable" points="179.99 255.83 179.99 258.75 182.52 255.83" fill="#1b8ef2" style="transform-origin:181.255px 257.29px"/>
<path class="animable" d="M184.06,255.23c0,.54.38.76.86.48l16.24-9.35a1.88,1.88,0,0,0,.86-1.49c0-.55-.38-.77-.86-.49l-16.24,9.37A1.89,1.89,0,0,0,184.06,255.23Z" fill="#e0e0e0" style="transform-origin:193.04px 250.045px"/>
<polygon class="animable" points="179.99 260.52 179.99 263.44 182.52 260.52" fill="#1b8ef2" style="transform-origin:181.255px 261.98px"/>
<path class="animable" d="M184.06,259.92c0,.54.38.76.86.48l16.24-9.35a1.88,1.88,0,0,0,.86-1.49c0-.55-.38-.77-.86-.49l-16.24,9.37A1.89,1.89,0,0,0,184.06,259.92Z" fill="#e0e0e0" style="transform-origin:193.04px 254.735px"/>
<polygon class="animable" points="179.99 265.21 179.99 268.13 182.52 265.21" fill="#1b8ef2" style="transform-origin:181.255px 266.67px"/>
<path class="animable" d="M184.06,264.61c0,.54.38.76.86.48l16.24-9.35a1.88,1.88,0,0,0,.86-1.49c0-.55-.38-.77-.86-.49l-16.24,9.37A1.89,1.89,0,0,0,184.06,264.61Z" fill="#e0e0e0" style="transform-origin:193.04px 259.425px"/>
<path class="animable" d="M220.61,202.79v24.44c0,1,.72,1.44,1.61.93l26.87-15.52a3.53,3.53,0,0,0,1.61-2.78V189.77c0-1-.72-1.44-1.61-.93l-15.59,9c-.89.51-1.61.1-1.61-.92v-.64c0-1-.71-1.44-1.6-.93L222.22,200A3.56,3.56,0,0,0,220.61,202.79Z" fill="#1b8ef2" style="transform-origin:235.655px 208.5px"/>
<path class="animable" d="M225.9,231.84v1.57c0,.76.54,1.07,1.2.69l20.16-11.64a2.65,2.65,0,0,0,1.2-2.08v-1.57c0-.76-.54-1.07-1.2-.69L227.1,229.76A2.65,2.65,0,0,0,225.9,231.84Z" fill="#e0e0e0" style="transform-origin:237.18px 226.11px"/>
<path class="animable" d="M258,181.34v24.44c0,1,.72,1.43,1.6.92l26.87-15.51a3.56,3.56,0,0,0,1.61-2.78v-20.1c0-1-.72-1.44-1.61-.93l-15.59,9c-.89.51-1.6.09-1.6-.93v-.64c0-1-.72-1.43-1.61-.92l-8.07,4.66A3.55,3.55,0,0,0,258,181.34Z" fill="#1b8ef2" style="transform-origin:273.04px 187.041px"/>
<path class="animable" d="M263.26,210.39V212c0,.77.54,1.08,1.2.7L284.62,201a2.68,2.68,0,0,0,1.2-2.09v-1.56c0-.77-.54-1.08-1.2-.69L264.46,208.3A2.68,2.68,0,0,0,263.26,210.39Z" fill="#e0e0e0" style="transform-origin:274.54px 204.677px"/>
<path class="animable" d="M220.61,251.89v24.44c0,1,.72,1.44,1.61.93l26.87-15.52A3.55,3.55,0,0,0,250.7,259v-20.1c0-1-.72-1.43-1.61-.92l-15.59,9c-.89.51-1.61.1-1.61-.92v-.64c0-1-.71-1.44-1.6-.93l-8.07,4.66A3.55,3.55,0,0,0,220.61,251.89Z" fill="#1b8ef2" style="transform-origin:235.655px 257.619px"/>
<path class="animable" d="M225.9,280.94v1.57c0,.76.54,1.07,1.2.69l20.16-11.64a2.67,2.67,0,0,0,1.2-2.08v-1.57c0-.76-.54-1.07-1.2-.69L227.1,278.86A2.65,2.65,0,0,0,225.9,280.94Z" fill="#e0e0e0" style="transform-origin:237.18px 275.21px"/>
<path class="animable" d="M258,230.43v24.44c0,1,.72,1.44,1.6.93l26.87-15.52a3.53,3.53,0,0,0,1.61-2.77v-20.1c0-1-.72-1.44-1.61-.93l-15.59,9c-.89.51-1.6.09-1.6-.93v-.64c0-1-.72-1.44-1.61-.92l-8.07,4.66A3.54,3.54,0,0,0,258,230.43Z" fill="#1b8ef2" style="transform-origin:273.04px 236.14px"/>
<path class="animable" d="M263.26,259.49v1.56c0,.77.54,1.08,1.2.69l20.16-11.63a2.68,2.68,0,0,0,1.2-2.09v-1.56c0-.77-.54-1.08-1.2-.7L264.46,257.4A2.68,2.68,0,0,0,263.26,259.49Z" fill="#e0e0e0" style="transform-origin:274.54px 253.753px"/>
<path class="animable" d="M295.78,158.7v24.44c0,1,.72,1.44,1.6.93l26.88-15.52a3.55,3.55,0,0,0,1.6-2.78V145.68c0-1-.72-1.44-1.6-.93l-15.6,9c-.88.52-1.6.1-1.6-.92v-.64c0-1-.72-1.44-1.61-.93l-8.07,4.67A3.54,3.54,0,0,0,295.78,158.7Z" fill="#1b8ef2" style="transform-origin:310.82px 164.41px"/>
<path class="animable" d="M300.62,188.93v1.57c0,.76.54,1.07,1.21.69L322,179.55a2.64,2.64,0,0,0,1.21-2.08v-1.56c0-.77-.54-1.08-1.21-.7l-20.15,11.64A2.64,2.64,0,0,0,300.62,188.93Z" fill="#e0e0e0" style="transform-origin:311.915px 183.2px"/>
<path class="animable" d="M332.7,138.43v24.44c0,1,.72,1.43,1.61.92l26.87-15.51a3.55,3.55,0,0,0,1.6-2.78V125.4c0-1-.71-1.44-1.6-.93l-15.59,9c-.89.51-1.61.09-1.61-.93v-.64c0-1-.71-1.43-1.6-.92l-8.07,4.66A3.53,3.53,0,0,0,332.7,138.43Z" fill="#1b8ef2" style="transform-origin:347.74px 144.131px"/>
<path class="animable" d="M338,167.48V169c0,.77.53,1.08,1.2.7l20.16-11.64a2.68,2.68,0,0,0,1.2-2.08v-1.57c0-.77-.54-1.08-1.2-.69l-20.16,11.63A2.66,2.66,0,0,0,338,167.48Z" fill="#e0e0e0" style="transform-origin:349.28px 161.707px"/>
<path class="animable" d="M300.62,238v1.57c0,.76.54,1.07,1.21.69L322,228.63a2.64,2.64,0,0,0,1.21-2.08V225c0-.76-.54-1.07-1.21-.69l-20.15,11.64A2.64,2.64,0,0,0,300.62,238Z" fill="#e0e0e0" style="transform-origin:311.915px 232.285px"/>
<path class="animable" d="m301.13 203.66 20.87-12.07c0.95-0.55 1.73-0.1 1.73 1v24.14a3.83 3.83 0 0 1-1.73 3l-20.87 12.07c-1 0.55-1.73 0.11-1.73-1v-24.14a3.84 3.84 0 0 1 1.73-3z" fill="#fafafa" style="transform-origin:311.565px 211.696px"/>
<path class="animable" d="M300.35,232.54a1.4,1.4,0,0,1-.7-.18,1.7,1.7,0,0,1-.75-1.56V206.66a4.32,4.32,0,0,1,2-3.43l20.91-12.07a1.68,1.68,0,0,1,1.72-.12,1.71,1.71,0,0,1,.76,1.55v24.14a4.32,4.32,0,0,1-2,3.43l-20.91,12.08A2.09,2.09,0,0,1,300.35,232.54Zm22.46-40.68a1,1,0,0,0-.52.17L301.38,204.1a3.3,3.3,0,0,0-1.48,2.56V230.8c0,.35.09.6.25.69a.8.8,0,0,0,.73-.12l20.91-12.07a3.35,3.35,0,0,0,1.48-2.57V192.59a.8.8,0,0,0-.26-.69A.42.42,0,0,0,322.81,191.86Z" fill="#ebebeb" style="transform-origin:311.594px 211.699px"/>
<path class="animable" d="m324.5 194.85-4.66 2.69a3.83 3.83 0 0 0-1.74 3v5.38c0 1.11 0.78 1.56 1.74 1l4.66-2.69a3.83 3.83 0 0 0 1.73-3v-5.38c0-1.1-0.78-1.55-1.73-1z" fill="#1b8ef2" style="transform-origin:322.165px 200.888px"/>
<path class="animable" d="M302.72,206.27l10.48-6c.47-.27.86-.05.86.51v.33a1.94,1.94,0,0,1-.86,1.5l-10.48,6c-.48.28-.87.06-.86-.5v-.34A1.91,1.91,0,0,1,302.72,206.27Z" fill="#ebebeb" style="transform-origin:307.96px 204.443px"/>
<path class="animable" d="M302.72,211l10.48-6c.47-.28.86-.05.86.5v.33a1.91,1.91,0,0,1-.86,1.5l-10.48,6c-.48.28-.87,0-.86-.5v-.35A1.91,1.91,0,0,1,302.72,211Z" fill="#ebebeb" style="transform-origin:307.96px 209.161px"/>
<path class="animable" d="M302.72,215.64l10.48-6c.47-.27.86-.05.86.5v.34a1.94,1.94,0,0,1-.86,1.5l-10.48,6c-.48.28-.87.06-.86-.5v-.34A1.9,1.9,0,0,1,302.72,215.64Z" fill="#ebebeb" style="transform-origin:307.96px 213.813px"/>
<path class="animable" d="M302.72,220.32l17.4-10c.48-.27.87,0,.87.5v.34a1.92,1.92,0,0,1-.87,1.5l-17.4,10c-.48.27-.87.05-.86-.5v-.35A1.91,1.91,0,0,1,302.72,220.32Z" fill="#ebebeb" style="transform-origin:311.425px 216.494px"/>
<path class="animable" d="M302.72,225l17.4-10c.48-.28.87,0,.87.5v.33a1.91,1.91,0,0,1-.87,1.5l-17.4,10c-.48.28-.87.05-.86-.5v-.34A1.88,1.88,0,0,1,302.72,225Z" fill="#ebebeb" style="transform-origin:311.425px 221.169px"/>
<path class="animable" d="M337.18,216.91v1.56c0,.77.54,1.08,1.2.7l20.16-11.64a2.66,2.66,0,0,0,1.2-2.09v-1.56c0-.77-.53-1.08-1.2-.7l-20.16,11.64A2.68,2.68,0,0,0,337.18,216.91Z" fill="#e0e0e0" style="transform-origin:348.46px 211.175px"/>
<path class="animable" d="m337.69 182.56 20.9-12.07c1-0.56 1.74-0.11 1.74 1v24.14a3.85 3.85 0 0 1-1.74 3l-20.9 12.07c-1 0.55-1.74 0.1-1.74-1v-24.14a3.82 3.82 0 0 1 1.74-3z" fill="#fafafa" style="transform-origin:348.14px 190.592px"/>
<path class="animable" d="M336.91,211.43a1.4,1.4,0,0,1-.7-.18,1.71,1.71,0,0,1-.76-1.55V185.56a4.32,4.32,0,0,1,2-3.44l20.9-12.07a1.55,1.55,0,0,1,2.49,1.44v24.14a4.31,4.31,0,0,1-2,3.43l-20.9,12.07A2.09,2.09,0,0,1,336.91,211.43Zm1-28.44a3.32,3.32,0,0,0-1.49,2.57V209.7a.8.8,0,0,0,.26.69.78.78,0,0,0,.73-.13l20.9-12.07a3.31,3.31,0,0,0,1.49-2.56V171.49a.58.58,0,0,0-1-.57Z" fill="#ebebeb" style="transform-origin:348.151px 190.575px"/>
<path class="animable" d="m361.05 173.75-4.66 2.69a3.83 3.83 0 0 0-1.73 3v5.38c0 1.1 0.78 1.55 1.73 1l4.66-2.69a3.85 3.85 0 0 0 1.74-3v-5.38c0-1.11-0.79-1.56-1.74-1z" fill="#1b8ef2" style="transform-origin:358.725px 179.782px"/>
<path class="animable" d="M339.28,185.16l10.47-6c.48-.28.87,0,.87.5V180a1.89,1.89,0,0,1-.87,1.5l-10.47,6c-.48.28-.87.05-.87-.5v-.35A1.92,1.92,0,0,1,339.28,185.16Z" fill="#ebebeb" style="transform-origin:344.515px 183.334px"/>
<path class="animable" d="M339.28,189.85l10.47-6c.48-.27.87,0,.87.5v.34a1.92,1.92,0,0,1-.87,1.5l-10.47,6c-.48.28-.87.06-.87-.5v-.34A1.91,1.91,0,0,1,339.28,189.85Z" fill="#ebebeb" style="transform-origin:344.515px 188.027px"/>
<path class="animable" d="M339.28,194.53l10.47-6c.48-.28.87,0,.87.5v.33a1.91,1.91,0,0,1-.87,1.5l-10.47,6c-.48.27-.87.05-.87-.5V196A1.92,1.92,0,0,1,339.28,194.53Z" fill="#ebebeb" style="transform-origin:344.515px 192.697px"/>
<path class="animable" d="M339.28,199.22l17.4-10c.48-.28.87-.05.87.5V190a1.92,1.92,0,0,1-.87,1.5l-17.4,10c-.48.28-.87.05-.87-.5v-.34A1.89,1.89,0,0,1,339.28,199.22Z" fill="#ebebeb" style="transform-origin:347.98px 195.36px"/>
<path class="animable" d="M339.28,203.9l17.4-10c.48-.27.87-.05.87.5v.34a1.92,1.92,0,0,1-.87,1.5l-17.4,10c-.48.27-.87.05-.87-.5v-.35A1.92,1.92,0,0,1,339.28,203.9Z" fill="#ebebeb" style="transform-origin:347.98px 200.07px"/>
<path class="animable" d="M300.62,287.83v1.57c0,.76.54,1.07,1.21.69L322,278.45a2.64,2.64,0,0,0,1.21-2.08V274.8c0-.76-.54-1.07-1.21-.69l-20.15,11.64A2.64,2.64,0,0,0,300.62,287.83Z" fill="#e0e0e0" style="transform-origin:311.915px 282.1px"/>
<path class="animable" d="m301.13 253.48 20.87-12.07c0.95-0.55 1.73-0.1 1.73 1v24.14a3.85 3.85 0 0 1-1.73 3l-20.91 12.07c-1 0.55-1.73 0.11-1.73-1v-24.14a3.82 3.82 0 0 1 1.77-3z" fill="#fafafa" style="transform-origin:311.545px 261.516px"/>
<path class="animable" d="M300.35,282.36a1.4,1.4,0,0,1-.7-.18,1.72,1.72,0,0,1-.75-1.56V256.48a4.32,4.32,0,0,1,2-3.43L321.79,241a1.55,1.55,0,0,1,2.48,1.43v24.14a4.32,4.32,0,0,1-2,3.43l-20.91,12.07A2.11,2.11,0,0,1,300.35,282.36Zm22.46-40.69a1.09,1.09,0,0,0-.52.17l-20.91,12.08a3.29,3.29,0,0,0-1.48,2.56v24.14a.58.58,0,0,0,1,.57l20.91-12.07a3.35,3.35,0,0,0,1.48-2.57V242.41a.8.8,0,0,0-.26-.69A.42.42,0,0,0,322.81,241.67Z" fill="#ebebeb" style="transform-origin:311.589px 261.52px"/>
<path class="animable" d="m324.5 244.67-4.66 2.69a3.83 3.83 0 0 0-1.74 3v5.38c0 1.11 0.78 1.55 1.74 1l4.66-2.69a3.83 3.83 0 0 0 1.73-3v-5.38c0-1.1-0.78-1.55-1.73-1z" fill="#1b8ef2" style="transform-origin:322.165px 250.706px"/>
<path class="animable" d="M302.72,256.09l10.48-6c.47-.27.86-.05.86.5v.34a1.94,1.94,0,0,1-.86,1.5l-10.48,6c-.48.28-.87.06-.86-.5v-.34A1.9,1.9,0,0,1,302.72,256.09Z" fill="#ebebeb" style="transform-origin:307.96px 254.263px"/>
<path class="animable" d="M302.72,260.77l10.48-6c.47-.28.86-.05.86.5v.33a1.92,1.92,0,0,1-.86,1.5l-10.48,6c-.48.27-.87.05-.86-.5v-.35A1.91,1.91,0,0,1,302.72,260.77Z" fill="#ebebeb" style="transform-origin:307.96px 258.933px"/>
<path class="animable" d="M302.72,265.46l10.48-6c.47-.27.86-.05.86.5v.34a1.94,1.94,0,0,1-.86,1.5l-10.48,6c-.48.28-.87.05-.86-.5V267A1.88,1.88,0,0,1,302.72,265.46Z" fill="#ebebeb" style="transform-origin:307.96px 263.632px"/>
<path class="animable" d="M302.72,270.14l17.4-10c.48-.27.87-.05.87.5V261a1.92,1.92,0,0,1-.87,1.5l-17.4,10c-.48.27-.87.05-.86-.5v-.35A1.91,1.91,0,0,1,302.72,270.14Z" fill="#ebebeb" style="transform-origin:311.425px 266.32px"/>
<path class="animable" d="M302.72,274.83l17.4-10c.48-.28.87-.06.87.5v.33a1.92,1.92,0,0,1-.87,1.5l-17.4,10c-.48.28-.87.05-.86-.5v-.34A1.88,1.88,0,0,1,302.72,274.83Z" fill="#ebebeb" style="transform-origin:311.425px 270.994px"/>
<path class="animable" d="M337.18,266.72v1.57c0,.77.54,1.08,1.2.69l20.16-11.63a2.66,2.66,0,0,0,1.2-2.09V253.7c0-.77-.53-1.08-1.2-.7l-20.16,11.64A2.68,2.68,0,0,0,337.18,266.72Z" fill="#e0e0e0" style="transform-origin:348.46px 260.993px"/>
<path class="animable" d="m337.69 232.38 20.9-12.07c1-0.56 1.74-0.11 1.74 1v24.13a3.82 3.82 0 0 1-1.74 3l-20.9 12.08c-1 0.55-1.74 0.1-1.74-1v-24.14a3.82 3.82 0 0 1 1.74-3z" fill="#fafafa" style="transform-origin:348.14px 240.412px"/>
<path class="animable" d="M336.91,261.25a1.4,1.4,0,0,1-.7-.18,1.71,1.71,0,0,1-.76-1.55V235.38a4.31,4.31,0,0,1,2-3.44l20.9-12.07a1.55,1.55,0,0,1,2.49,1.44v24.13a4.31,4.31,0,0,1-2,3.44L337.94,261A2.09,2.09,0,0,1,336.91,261.25Zm1-28.44a3.32,3.32,0,0,0-1.49,2.57v24.14a.76.76,0,0,0,.26.68.77.77,0,0,0,.73-.12L358.34,248a3.32,3.32,0,0,0,1.49-2.57V221.31a.58.58,0,0,0-1-.57Z" fill="#ebebeb" style="transform-origin:348.15px 240.395px"/>
<path class="animable" d="m361.05 223.57-4.66 2.69a3.83 3.83 0 0 0-1.73 3v5.38c0 1.1 0.78 1.55 1.73 1l4.66-2.69a3.85 3.85 0 0 0 1.74-3v-5.38c0-1.11-0.79-1.57-1.74-1z" fill="#1b8ef2" style="transform-origin:358.725px 229.6px"/>
<path class="animable" d="M339.28,235l10.47-6c.48-.28.87-.05.87.5v.33a1.91,1.91,0,0,1-.87,1.5l-10.47,6c-.48.27-.87,0-.87-.5v-.35A1.92,1.92,0,0,1,339.28,235Z" fill="#ebebeb" style="transform-origin:344.515px 233.159px"/>
<path class="animable" d="M339.28,239.67l10.47-6c.48-.27.87,0,.87.5v.34a1.92,1.92,0,0,1-.87,1.5l-10.47,6c-.48.28-.87.05-.87-.5v-.34A1.89,1.89,0,0,1,339.28,239.67Z" fill="#ebebeb" style="transform-origin:344.515px 237.846px"/>
<path class="animable" d="M339.28,244.35l10.47-6c.48-.28.87-.06.87.5v.33a1.92,1.92,0,0,1-.87,1.5l-10.47,6c-.48.27-.87.05-.87-.5v-.35A1.92,1.92,0,0,1,339.28,244.35Z" fill="#ebebeb" style="transform-origin:344.515px 242.512px"/>
<path class="animable" d="M339.28,249l17.4-10c.48-.28.87-.06.87.5v.33a1.92,1.92,0,0,1-.87,1.5l-17.4,10c-.48.28-.87.05-.87-.5v-.34A1.89,1.89,0,0,1,339.28,249Z" fill="#ebebeb" style="transform-origin:347.98px 245.164px"/>
<path class="animable" d="M339.28,253.72l17.4-10c.48-.28.87-.05.87.5v.33a1.89,1.89,0,0,1-.87,1.5l-17.4,10c-.48.27-.87.05-.87-.5v-.35A1.92,1.92,0,0,1,339.28,253.72Z" fill="#ebebeb" style="transform-origin:347.98px 249.883px"/>
<path class="animable" d="M225.9,331v1.56c0,.77.54,1.08,1.21.7l20.15-11.64a2.65,2.65,0,0,0,1.21-2.08V318c0-.77-.54-1.08-1.21-.69l-20.15,11.63A2.67,2.67,0,0,0,225.9,331Z" fill="#e0e0e0" style="transform-origin:237.185px 325.282px"/>
<path class="animable" d="m226.41 296.65 20.91-12.07c1-0.55 1.73-0.11 1.73 1v24.14a3.86 3.86 0 0 1-1.73 3l-20.91 12.07c-1 0.55-1.73 0.1-1.73-1v-24.14a3.81 3.81 0 0 1 1.73-3z" fill="#fafafa" style="transform-origin:236.865px 304.684px"/>
<path class="animable" d="M225.63,325.52a1.4,1.4,0,0,1-.7-.18,1.7,1.7,0,0,1-.75-1.55V299.65a4.32,4.32,0,0,1,2-3.43l20.91-12.07a1.54,1.54,0,0,1,2.48,1.43v24.14a4.32,4.32,0,0,1-2,3.43l-20.91,12.07A2.09,2.09,0,0,1,225.63,325.52Zm.78-28.87.25.43a3.32,3.32,0,0,0-1.48,2.57v24.14a.58.58,0,0,0,1,.57l20.91-12.08a3.33,3.33,0,0,0,1.48-2.56V285.58a.58.58,0,0,0-1-.57l-20.91,12.07Z" fill="#ebebeb" style="transform-origin:236.88px 304.669px"/>
<path class="animable" d="m249.78 287.84-4.66 2.69a3.82 3.82 0 0 0-1.74 3v5.38c0 1.1 0.78 1.55 1.74 1l4.66-2.69a3.85 3.85 0 0 0 1.73-3v-5.38c0-1.11-0.78-1.55-1.73-1z" fill="#1b8ef2" style="transform-origin:247.445px 293.874px"/>
<path class="animable" d="M228,299.26l10.48-6c.47-.28.86-.05.86.5v.33a1.91,1.91,0,0,1-.86,1.5l-10.48,6c-.48.28-.86,0-.86-.5v-.34A1.88,1.88,0,0,1,228,299.26Z" fill="#ebebeb" style="transform-origin:233.24px 297.421px"/>
<path class="animable" d="M228,303.94l10.48-6c.47-.27.86-.05.86.51v.33a1.94,1.94,0,0,1-.86,1.5l-10.48,6c-.48.27-.86,0-.86-.5v-.35A1.91,1.91,0,0,1,228,303.94Z" fill="#ebebeb" style="transform-origin:233.24px 302.106px"/>
<path class="animable" d="M228,308.63l10.48-6c.47-.28.86-.05.86.5v.33a1.91,1.91,0,0,1-.86,1.5L228,311c-.48.28-.86,0-.86-.5v-.35A1.88,1.88,0,0,1,228,308.63Z" fill="#ebebeb" style="transform-origin:233.24px 306.811px"/>
<path class="animable" d="M228,313.31l17.4-10c.48-.28.87,0,.87.5v.33a1.89,1.89,0,0,1-.87,1.5l-17.4,10c-.48.28-.86.06-.86-.5v-.34A1.91,1.91,0,0,1,228,313.31Z" fill="#ebebeb" style="transform-origin:236.705px 309.48px"/>
<path class="animable" d="M228,318l17.4-10c.48-.27.87,0,.87.5v.34a1.92,1.92,0,0,1-.87,1.5l-17.4,10c-.48.27-.86.05-.86-.5v-.35A1.91,1.91,0,0,1,228,318Z" fill="#ebebeb" style="transform-origin:236.705px 314.174px"/>
<path class="animable" d="M262.46,309.89v1.57c0,.76.54,1.08,1.2.69l20.16-11.64a2.62,2.62,0,0,0,1.2-2.08v-1.56c0-.77-.53-1.08-1.2-.7l-20.16,11.64A2.67,2.67,0,0,0,262.46,309.89Z" fill="#e0e0e0" style="transform-origin:273.74px 304.162px"/>
<path class="animable" d="M263,275.54l20.9-12.07c1-.55,1.74-.1,1.74,1v24.14a3.82,3.82,0,0,1-1.74,3L263,303.68c-1,.56-1.74.11-1.74-1V278.54A3.85,3.85,0,0,1,263,275.54Z" fill="#fafafa" style="transform-origin:273.45px 283.578px"/>
<path class="animable" d="M262.19,304.42a1.4,1.4,0,0,1-.7-.18,1.73,1.73,0,0,1-.76-1.56V278.54a4.33,4.33,0,0,1,2-3.43L283.62,263a1.55,1.55,0,0,1,2.49,1.43v24.14a4.29,4.29,0,0,1-2,3.43l-20.9,12.08A2.09,2.09,0,0,1,262.19,304.42Zm22.46-40.68a1,1,0,0,0-.53.17L263.22,276a3.31,3.31,0,0,0-1.49,2.56v24.14a.77.77,0,0,0,.26.69.8.8,0,0,0,.73-.12l20.9-12.07a3.33,3.33,0,0,0,1.49-2.57V264.47a.8.8,0,0,0-.26-.69A.45.45,0,0,0,284.65,263.74Z" fill="#ebebeb" style="transform-origin:273.425px 283.546px"/>
<path class="animable" d="m286.33 266.73-4.66 2.69a3.86 3.86 0 0 0-1.73 3v5.38c0 1.11 0.78 1.56 1.73 1l4.66-2.69a3.82 3.82 0 0 0 1.74-3v-5.38c0-1.1-0.78-1.55-1.74-1z" fill="#1b8ef2" style="transform-origin:284.005px 272.768px"/>
<path class="animable" d="M264.56,278.15l10.47-6c.48-.27.87-.05.87.51V273a1.92,1.92,0,0,1-.87,1.5l-10.47,6c-.48.27-.87.05-.87-.51v-.34A1.92,1.92,0,0,1,264.56,278.15Z" fill="#ebebeb" style="transform-origin:269.795px 276.325px"/>
<path class="animable" d="M264.56,282.84l10.47-6c.48-.28.87-.05.87.5v.33a1.89,1.89,0,0,1-.87,1.5l-10.47,6c-.48.28-.87.05-.87-.5v-.35A1.89,1.89,0,0,1,264.56,282.84Z" fill="#ebebeb" style="transform-origin:269.795px 281.005px"/>
<path class="animable" d="M264.56,287.52l10.47-6c.48-.27.87-.05.87.5v.34a1.92,1.92,0,0,1-.87,1.5l-10.47,6c-.48.28-.87.06-.87-.5V289A1.92,1.92,0,0,1,264.56,287.52Z" fill="#ebebeb" style="transform-origin:269.795px 285.693px"/>
<path class="animable" d="M264.56,292.2l17.4-10c.48-.27.87-.05.87.5V283a1.92,1.92,0,0,1-.87,1.5l-17.4,10c-.48.27-.87.05-.87-.5v-.35A1.92,1.92,0,0,1,264.56,292.2Z" fill="#ebebeb" style="transform-origin:273.26px 288.35px"/>
<path class="animable" d="M264.56,296.89l17.4-10c.48-.28.87-.05.87.5v.33a1.91,1.91,0,0,1-.87,1.5l-17.4,10c-.48.28-.87,0-.87-.5v-.34A1.89,1.89,0,0,1,264.56,296.89Z" fill="#ebebeb" style="transform-origin:273.26px 293.051px"/>
<polygon class="animable" points="167.81 201.91 163.75 199.54 163.75 218.31 167.81 220.66" fill="#1b8ef2" style="transform-origin:165.78px 210.1px"/>
<polygon class="animable" points="167.81 201.91 163.75 199.54 163.75 218.31 167.81 220.66" opacity=".1" style="transform-origin:165.78px 210.1px"/>
</g>
</g>
<g id="b" class="animable" style="transform-origin:397.31px 266.646px">
<g class="animable" style="transform-origin:397.31px 266.646px">
<path class="animable" d="m407.73 279.47a2.9 2.9 0 0 0-2.88 0.28 9 9 0 0 0-4.08 7 2.88 2.88 0 0 0 1.18 2.64l50.62 32c1 0.7 2.51 0.66 4.16-0.29a12.55 12.55 0 0 0 5.71-9.83c0-1.9-0.7-3.21-1.82-3.76z" fill="#1b8ef2" style="transform-origin:431.597px 300.541px"/>
<path class="animable" d="m400.77 286.79c0 2.59 1.81 3.65 4.06 2.36a9 9 0 0 0 4.08-7c0-2.59-1.81-3.65-4.06-2.36a9 9 0 0 0-4.08 7z" opacity=".15" style="transform-origin:404.84px 284.47px"/>
<path class="animable" d="m389.57 272.74a5.43 5.43 0 0 0-2.47 4.26 1.74 1.74 0 0 0 0.71 1.59l15.28 8.87a1.71 1.71 0 0 0 1.73-0.17 5.4 5.4 0 0 0 2.48-4.29 1.72 1.72 0 0 0-0.71-1.6l-15.28-8.87a1.73 1.73 0 0 0-1.74 0.21z" fill="#263238" style="transform-origin:397.201px 280.003px"/>
<path class="animable" d="m406.74 287.49 52.08 32a10 10 0 0 1-2.08 1.65c-1.65 0.95-3.13 1-4.17 0.29l-50.61-32a2.85 2.85 0 0 0 2.87-0.28 7.41 7.41 0 0 0 1.91-1.66z" opacity=".1" style="transform-origin:430.39px 304.702px"/>
<path class="animable" d="M415.48,241.93c0-.43,0-.84-.06-1.26s-.05-.83-.1-1.24-.05-.54-.08-.81c-.07-.72-.18-1.42-.29-2.09-.06-.3-.11-.62-.17-.92s-.12-.57-.18-.86c-.18-.77-.36-1.53-.58-2.25-.12-.34-.22-.69-.34-1a1.42,1.42,0,0,1-.05-.16c-.13-.34-.24-.66-.37-1a11.68,11.68,0,0,0-.46-1.08,7.76,7.76,0,0,0-.37-.77,3,3,0,0,0-.27-.54c-.1-.22-.22-.44-.34-.65l-.09-.15c-.1-.19-.22-.37-.33-.56s-.16-.24-.23-.36a20,20,0,0,0-1.8-2.4c-.12-.12-.23-.25-.34-.37s-.19-.2-.28-.3l-.37-.36a11.08,11.08,0,0,0-1.09-1,5.79,5.79,0,0,0-.55-.43c-.19-.15-.38-.29-.58-.42a9.29,9.29,0,0,0-.93-.61l-.25-.16-.05,0h0l-11-6.39h0l-.08-.05a18.65,18.65,0,0,0-9.32-2.36c-4.86,0-10.34,1.6-16.15,4.95-20,11.52-36.14,39.54-36.14,62.6,0,11.49,4,19.57,10.52,23.36l.06,0h0l11,6.38h0l.06,0h0l.18.1c.29.16.57.31.86.45s.72.33,1.09.48.66.26,1,.36a3.68,3.68,0,0,0,.54.16,3.08,3.08,0,0,0,.57.17l.59.15a3.29,3.29,0,0,0,.43.09l.78.14.18,0,.94.12c5.39.57,11.65-.95,18.35-4.81,20-11.53,36.14-39.56,36.14-62.6C415.51,243,415.5,242.48,415.48,241.93Zm-24.21-16.3a32.35,32.35,0,0,1,1.14,8.8c0,20.33-14.88,46.09-32.48,56.25a31.41,31.41,0,0,1-8.24,3.43,32.37,32.37,0,0,1-1.14-8.81c0-20.33,14.87-46.09,32.48-56.25A31.22,31.22,0,0,1,391.27,225.63Z" fill="#1b8ef2" style="transform-origin:373.885px 261.192px"/>
<path class="animable" d="m353.3 308.42-10.6-6.14c-6.5-3.8-10.52-11.89-10.52-23.36 0-10.28 3.22-21.54 8.55-31.89l11 6.39c-5.34 10.34-8.56 21.61-8.56 31.89 0.04 11.24 3.83 19.21 10.13 23.11z" opacity=".1" style="transform-origin:342.74px 277.725px"/>
<path class="animable" d="M415.48,241.93c0-.43,0-.84-.06-1.26s-.05-.83-.1-1.24-.05-.54-.08-.81c-.07-.72-.18-1.42-.29-2.09-.06-.3-.11-.62-.17-.92s-.12-.57-.18-.86c-.18-.77-.36-1.53-.58-2.25-.12-.34-.22-.69-.34-1a1.42,1.42,0,0,1-.05-.16c-.13-.34-.24-.66-.37-1a11.68,11.68,0,0,0-.46-1.08,7.76,7.76,0,0,0-.37-.77,3,3,0,0,0-.27-.54c-.1-.22-.22-.44-.34-.65l-.09-.15c-.1-.19-.22-.37-.33-.56s-.16-.24-.23-.36a20,20,0,0,0-1.8-2.4c-.12-.12-.23-.25-.34-.37s-.19-.2-.28-.3l-.37-.36a11.08,11.08,0,0,0-1.09-1,5.79,5.79,0,0,0-.55-.43c-.19-.15-.38-.29-.58-.42a9.29,9.29,0,0,0-.93-.61c-6.56-4-16-3.9-25.86,2.33-19.81,12.48-36.05,40.15-36.15,62.6-.05,11.68,4.14,19.83,10.83,23.54.29.16.57.31.86.45s.72.33,1.09.48.66.26,1,.36a3.68,3.68,0,0,0,.54.16,3.08,3.08,0,0,0,.57.17l.59.15a3.29,3.29,0,0,0,.43.09l.78.14.18,0,.94.12c5.39.57,11.65-.95,18.35-4.81,20-11.53,36.14-39.56,36.14-62.6C415.51,243,415.5,242.48,415.48,241.93Zm-39.78,57.9c-4.48,2.59-8.79,3.95-12.48,3.95-6.92,0-10.1-4.72-11.53-9.67a32.37,32.37,0,0,1-1.14-8.81c0-20.33,14.87-46.09,32.48-56.25a31.22,31.22,0,0,1,8.24-3.42,18.49,18.49,0,0,1,4.24-.53c11.44,0,12.66,12.92,12.66,18.48C408.17,263.91,393.31,289.67,375.7,299.83Z" fill="#fff" opacity=".4" style="transform-origin:379.37px 264.33px"/>
<path class="animable" d="M408.17,243.58c0,20.32-14.86,46.09-32.47,56.25-4.48,2.59-8.79,3.95-12.47,3.95a10.61,10.61,0,0,1-8.51-3.73h0c-.18-.21-.35-.43-.52-.65s-.33-.45-.47-.69a5.33,5.33,0,0,1-.31-.51c-.07-.11-.14-.22-.2-.33s-.14-.28-.22-.42-.13-.26-.19-.39-.13-.26-.19-.4l-.3-.72c-.12-.3-.23-.6-.33-.91s-.21-.61-.29-.92a31.41,31.41,0,0,0,8.24-3.43c17.6-10.16,32.48-35.92,32.48-56.25a32.35,32.35,0,0,0-1.14-8.8,18.49,18.49,0,0,1,4.24-.53,14.84,14.84,0,0,1,1.67.1l.52.08h0C407.1,226.84,408.17,238.4,408.17,243.58Z" opacity=".1" style="transform-origin:379.935px 264.444px"/>
<path class="animable" d="M401.85,240c0,20.33-14.86,46.09-32.47,56.25-4.48,2.59-8.79,4-12.48,4a12.78,12.78,0,0,1-2.19-.18c-.18-.21-.35-.43-.52-.65s-.33-.45-.47-.69a5.33,5.33,0,0,1-.31-.51c-.07-.11-.14-.22-.2-.33s-.14-.28-.22-.42-.13-.26-.19-.39-.13-.26-.19-.4l-.3-.72c-.12-.3-.23-.6-.33-.91s-.21-.61-.29-.92a31.41,31.41,0,0,0,8.24-3.43c17.6-10.16,32.48-35.92,32.48-56.25a32.35,32.35,0,0,0-1.14-8.8,18.49,18.49,0,0,1,4.24-.53,14.84,14.84,0,0,1,1.67.1l.52.08C401.32,229.54,401.85,236.37,401.85,240Z" fill="#fff" opacity=".7" style="transform-origin:376.77px 262.685px"/>
</g>
</g>
</svg>
